<svg id="Layer_1" data-name="Layer 1" xmlns="http://www.w3.org/2000/svg" viewBox="0 0 503.98 134.72"><defs><style>.cls-1{fill:#fff;}.cls-2{fill:#fdb913;}</style></defs><path class="cls-1" d="M127.37,34.8h17.87v65.73H127.37Zm60.73,7.62a25.37,25.37,0,0,1,4.73,10.26,68.34,68.34,0,0,1,1.45,15.24v32.61H176.4V67.84q0-3.69-.2-7.05a16.31,16.31,0,0,0-1.38-5.93,8.7,8.7,0,0,0-3.81-4,15.72,15.72,0,0,0-7.49-1.45,18.91,18.91,0,0,0-8.55,2v.13l-.13-.13L148.4,40l.13-.13q6.84-6.12,17.09-6.12Q181.4,33.75,188.1,42.42Z"/><path class="cls-1" d="M217.81,91.59l-23-56.79h18.8v.13l17,47.72ZM268.15,34.8l-.13.26q-2.24,6-4.34,11.77t-3.94,10.71Q253.17,75.95,248,89.16a101.06,101.06,0,0,1-11.11,21.49q-5.93,8.53-13.34,12.35t-18.61,3.82h-.26V108.94h.26q3.42,0,6.12-.26a19.14,19.14,0,0,0,4.93-1.12,15.54,15.54,0,0,0,4.14-2.37,18.08,18.08,0,0,0,3.61-4,41.46,41.46,0,0,0,3.42-5.78q1.71-3.42,3.55-8.15c1.23-3.16,2.58-6.81,4.08-11s3.15-8.87,5-14.13q2.1-5.91,4.47-12.62t5.13-14.59V34.8Z"/><path class="cls-1" d="M273.41,8.51h17.48V23.89H273.41Zm0,92V34.8h17.48v65.73Z"/><path class="cls-1" d="M298.78,34.8h17.88v65.73H298.78Zm60.73,7.62a25.24,25.24,0,0,1,4.73,10.26,67.76,67.76,0,0,1,1.45,15.24v32.61H347.81V67.84c0-2.46-.06-4.81-.2-7.05a16.31,16.31,0,0,0-1.38-5.93,8.65,8.65,0,0,0-3.81-4,15.69,15.69,0,0,0-7.49-1.45,18.84,18.84,0,0,0-8.54,2v.13l-.14-.13L319.81,40l.13-.13q6.84-6.12,17.09-6.12Q352.81,33.75,359.51,42.42Z"/><path class="cls-1" d="M389.22,91.59l-23-56.79H385v.13l17,47.72ZM439.57,34.8l-.13.26q-2.25,6-4.34,11.77t-4,10.71q-6.57,18.41-11.76,31.62a100.6,100.6,0,0,1-11.11,21.49q-5.91,8.53-13.34,12.35t-18.6,3.82h-.26V108.94h.26c2.28,0,4.31-.09,6.11-.26a19,19,0,0,0,4.93-1.12,15.54,15.54,0,0,0,4.14-2.37,18.1,18.1,0,0,0,3.62-4,42.49,42.49,0,0,0,3.41-5.78q1.71-3.42,3.55-8.15c1.23-3.16,2.59-6.81,4.08-11s3.15-8.87,5-14.13c1.4-3.94,2.9-8.15,4.47-12.62s3.29-9.33,5.13-14.59V34.8Z"/><path class="cls-1" d="M470.06,33.75a32.63,32.63,0,0,1,13.15,2.69,34.38,34.38,0,0,1,18.07,18.08A32.77,32.77,0,0,1,504,67.79a33.63,33.63,0,0,1-.79,7.37l-.13.26H469.67L461.26,62h25a19.59,19.59,0,0,0-6.11-9.07,15.24,15.24,0,0,0-10.06-3.55,16,16,0,0,0-6.7,1.44,17.22,17.22,0,0,0-9.07,9.63A19.62,19.62,0,0,0,453,67.73,17.91,17.91,0,0,0,454.16,74a19.13,19.13,0,0,0,3.41,5.83A19.81,19.81,0,0,0,463,84.17a14.27,14.27,0,0,0,7.1,1.76,20.4,20.4,0,0,0,6.51-1,12.16,12.16,0,0,0,5.59-4.41l.13-.13.26.13,15.25,6.72-.26.27a33,33,0,0,1-12,10.34,33.65,33.65,0,0,1-15.45,3.71A34.06,34.06,0,0,1,456.72,99a33.44,33.44,0,0,1-10.84-7.23,34.58,34.58,0,0,1-7.3-10.78,33.78,33.78,0,0,1,0-26.42,34.28,34.28,0,0,1,18.14-18.08A33.4,33.4,0,0,1,470.06,33.75Z"/><path class="cls-2" d="M53.37,133.41,7.14,106.72A14.28,14.28,0,0,1,0,94.35V41A14.28,14.28,0,0,1,7.14,28.6L53.37,1.91a14.28,14.28,0,0,1,14.28,0L113.88,28.6A14.28,14.28,0,0,1,121,41V94.35a14.28,14.28,0,0,1-7.14,12.37L67.65,133.41A14.28,14.28,0,0,1,53.37,133.41ZM29,94.11l24.39,14.08a14.28,14.28,0,0,0,14.28,0L92,94.11a14.27,14.27,0,0,0,7.14-12.37V53.58A14.28,14.28,0,0,0,92,41.21L67.65,27.13a14.28,14.28,0,0,0-14.28,0L29,41.21a14.28,14.28,0,0,0-7.14,12.37V81.74A14.27,14.27,0,0,0,29,94.11Z"/><path class="cls-2" d="M71.71,72V63.36a3.75,3.75,0,0,0-1.87-3.24l-7.46-4.31a3.78,3.78,0,0,0-3.74,0l-7.45,4.31a3.74,3.74,0,0,0-1.88,3.24V72a3.75,3.75,0,0,0,1.88,3.24l7.45,4.3a3.73,3.73,0,0,0,3.74,0l7.46-4.3A3.77,3.77,0,0,0,71.71,72Z"/></svg>